<svg width="216" height="216" viewBox="0 0 216 216" fill="none" xmlns="http://www.w3.org/2000/svg">
  <rect width="216" height="216" fill="#FDFDFB"/>
  <g transform="translate(27, 60)">
    <g transform="translate(114, 0) rotate(7.028)">
      <rect x="1" y="4" width="43" height="43" rx="6.517" fill="none" stroke="#0C0B0C" stroke-width="3.91"/>
      <line x1="36" y1="4" x2="43" y2="4" stroke="#000" stroke-width="1"/>
      <line x1="7" y1="20" x2="46" y2="20" stroke="#000" stroke-width="1"/>
      <line x1="15" y1="1" x2="22" y2="1" stroke="#000" stroke-width="1"/>
      <rect x="17" y="22" width="34" height="31" fill="#FDFDFB"/>
      <line x1="38" y1="40" x2="58" y2="40" stroke="#000" stroke-width="1"/>
      <line x1="41" y1="14" x2="61" y2="14" stroke="#000" stroke-width="1"/>
      <line x1="32" y1="50" x2="52" y2="50" stroke="#000" stroke-width="1"/>
      <line x1="7" y1="47" x2="27" y2="47" stroke="#000" stroke-width="1"/>
    </g>
    <svg x="0" y="15" width="133" height="81" viewBox="0 0 133 82" fill="none">
      <path d="M125.68 69.0251C124.15 70.5101 122.125 71.2751 119.425 71.2751C113.845 71.2751 110.2 67.1351 110.2 60.0251C110.2 53.0051 113.98 48.6401 119.65 48.6401C122.845 48.6401 124.96 49.9001 126.04 51.7901V49.0901H132.925V69.4301C132.925 78.3401 129.055 81.0851 121.405 81.1301C115.51 81.1301 111.595 78.7901 110.65 73.7951L117.985 72.7151C118.345 74.6951 119.605 75.5951 121.45 75.5951C124.465 75.5951 125.68 73.9301 125.68 70.8701V69.0251ZM125.995 60.2951C125.995 56.4701 124.51 54.3551 121.945 54.3551C119.155 54.3551 117.445 56.3801 117.445 60.0701C117.445 63.9401 119.11 65.8751 121.72 65.8751C124.285 65.8751 125.995 64.4351 125.995 60.2951Z" fill="#0C0B0C"/>
      <path d="M107.126 71.7701H100.196V59.2601C100.196 57.5951 99.9705 56.4701 99.4305 55.7501C98.9355 55.1201 98.1705 54.8501 97.0905 54.8501C95.6955 54.8501 94.4805 55.6151 93.8955 56.5601C93.2205 57.6401 92.9955 58.6751 92.9955 60.7451V71.7701H86.0205V49.0901H92.8605V52.2401C94.5705 50.0801 97.0905 48.6401 100.241 48.6401C102.716 48.6401 104.516 49.3601 105.686 50.9351C106.676 52.2851 107.126 54.2201 107.126 57.1451V71.7701Z" fill="#0C0B0C"/>
      <path d="M81.7134 49.09V71.77H74.7384V49.09H81.7134ZM81.7134 45.895H74.6934V40H81.7134V45.895Z" fill="#0C0B0C"/>
      <path d="M70.584 71.77H63.654V59.26C63.654 57.595 63.474 56.515 62.934 55.795C62.439 55.12 61.674 54.85 60.549 54.85C59.154 54.85 57.939 55.615 57.354 56.56C56.679 57.64 56.454 58.675 56.454 60.745V71.77H49.479V40H56.319V52.24C58.029 50.08 60.549 48.64 63.699 48.64C66.084 48.64 67.794 49.315 69.009 50.755C70.134 52.105 70.584 54.04 70.584 57.145V71.77Z" fill="#0C0B0C"/>
      <path d="M47.1922 66.3251V71.6801C45.7072 72.0401 44.1322 72.22 42.4222 72.22C36.6622 72.22 35.8072 68.8901 35.8072 65.2001V54.535H32.6572V49.09H35.8972V41.8H42.7822V49.09H47.1022V54.535H42.7822V64.03C42.7822 66.145 43.4572 66.73 44.8522 66.73C45.4372 66.73 46.5622 66.5951 47.1922 66.3251Z" fill="#0C0B0C"/>
      <path d="M14.355 69.1601C12.465 71.2751 10.215 72.2201 7.065 72.2201C2.7 72.2201 0 69.5651 0 65.3351C0 62.5901 1.35 60.5651 4.05 59.2601C6.48 58.1351 11.205 57.5951 14.175 57.4151V56.2451C14.175 54.6701 13.14 53.7251 10.89 53.7251C8.775 53.7251 7.875 55.0301 7.65 56.8301L1.08 56.3801C1.485 51.2951 5.13 48.3701 11.52 48.3701C14.85 48.3701 17.055 49.0901 18.765 50.5751C20.34 51.9251 20.835 53.8151 20.835 57.4601V64.9751C20.835 68.0801 20.925 70.6001 21.42 71.7701H14.715C14.535 70.9151 14.355 70.0151 14.355 69.1601ZM14.175 62.7251V61.8251C11.385 62.0051 9.18 62.4101 7.965 63.0401C7.02 63.5351 6.66 64.2101 6.66 65.0651C6.66 65.9201 7.2 67.1351 9.36 67.1351C12.33 67.1351 14.175 65.2901 14.175 62.7251Z" fill="#0C0B0C"/>
      <path d="M105.299 31.77H97.2886L91.9336 22.41L89.3686 25.11V31.77H82.3486V0H89.3686V17.055L96.3886 9.09H104.759L96.8386 17.595L105.299 31.77Z" fill="#0C0B0C"/>
      <path d="M79.057 20.7001C79.057 28.5751 74.152 32.4451 67.357 32.4451C60.022 32.4451 55.792 28.1701 55.792 20.4751C55.792 12.7351 60.427 8.37012 67.717 8.37012C74.782 8.37012 79.057 12.8251 79.057 20.7001ZM72.127 20.4301C72.127 15.8851 70.237 14.0851 67.582 14.0851C65.017 14.0851 62.857 16.1101 62.857 20.3851C62.857 24.9751 64.882 26.7301 67.492 26.7301C70.012 26.7301 72.127 25.2001 72.127 20.4301Z" fill="#0C0B0C"/>
      <path d="M53.535 20.7001C53.535 28.5751 48.63 32.4451 41.835 32.4451C34.5 32.4451 30.27 28.1701 30.27 20.4751C30.27 12.7351 34.905 8.37012 42.195 8.37012C49.26 8.37012 53.535 12.8251 53.535 20.7001ZM46.605 20.4301C46.605 15.8851 44.715 14.0851 42.06 14.0851C39.495 14.0851 37.335 16.1101 37.335 20.3851C37.335 24.9751 39.36 26.7301 41.97 26.7301C44.49 26.7301 46.605 25.2001 46.605 20.4301Z" fill="#0C0B0C"/>
      <path d="M1.26025 0H15.3453C19.0803 0 21.5553 0.314999 23.1753 1.125C25.5153 2.295 26.9103 4.86 26.9103 8.055C26.9103 11.34 25.0653 13.815 21.5103 15.03C25.7853 15.84 27.9903 18.585 27.9903 22.725C27.9903 25.875 26.4603 28.575 24.0753 30.105C22.0503 31.365 19.3953 31.77 14.8053 31.77H1.26025V0ZM8.82025 6.12V12.465H14.6703C17.8203 12.465 19.2603 11.385 19.2603 9.27C19.2603 7.38 18.4053 6.12 14.5803 6.12H8.82025ZM8.82025 18.54V25.56H14.5803C18.6753 25.56 20.0253 24.3 20.0253 22.095C20.0253 19.89 19.0353 18.54 14.8503 18.54H8.82025Z" fill="#0C0B0C"/>
    </svg>
  </g>
</svg>
